<svg xmlns="http://www.w3.org/2000/svg" viewBox="0 0 64 64" width="64" height="64" role="img" aria-label="GuoCai E-Gou">
  <defs>
    <linearGradient id="shield-bg" x1="8" y1="4" x2="56" y2="58" gradientUnits="userSpaceOnUse">
      <stop offset="0%" stop-color="#1a4fa0"/>
      <stop offset="55%" stop-color="#2563eb"/>
      <stop offset="100%" stop-color="#1d4ed8"/>
    </linearGradient>
    <linearGradient id="gold-line" x1="12" y1="48" x2="52" y2="48" gradientUnits="userSpaceOnUse">
      <stop offset="0%" stop-color="#b8860b"/>
      <stop offset="50%" stop-color="#e8c547"/>
      <stop offset="100%" stop-color="#b8860b"/>
    </linearGradient>
    <linearGradient id="roof" x1="32" y1="16" x2="32" y2="28" gradientUnits="userSpaceOnUse">
      <stop offset="0%" stop-color="#ffffff" stop-opacity="0.98"/>
      <stop offset="100%" stop-color="#dbeafe" stop-opacity="0.92"/>
    </linearGradient>
  </defs>
  <path d="M32 3.5 55 13.2v18.8c0 12.8-9.8 22.6-23 27.5-13.2-4.9-23-14.7-23-27.5V13.2L32 3.5z" fill="url(#shield-bg)"/>
  <path d="M32 5.8 52.6 14.4v17.6c0 11.2-8.6 19.8-20.6 24.2-12-4.4-20.6-13-20.6-24.2V14.4L32 5.8z" fill="none" stroke="url(#gold-line)" stroke-width="1.4"/>
  <path d="M20 24.5 32 17.5 44 24.5v3.2H20v-3.2z" fill="url(#roof)"/>
  <rect x="22" y="27.2" width="20" height="2.2" rx="0.6" fill="#ffffff" opacity="0.88"/>
  <path d="M24.5 31.5h15c1.1 0 2 .9 2 2v11.5c0 1.1-.9 2-2 2h-15c-1.1 0-2-.9-2-2V33.5c0-1.1.9-2 2-2z" fill="#ffffff" opacity="0.96"/>
  <path d="M27.5 31.5v-3.2c0-2.5 2-4.5 4.5-4.5s4.5 2 4.5 4.5v3.2" fill="none" stroke="#ffffff" stroke-width="2.2" stroke-linecap="round"/>
  <text x="32" y="43.5" text-anchor="middle" font-family="Georgia, Times New Roman, serif" font-size="13.5" font-weight="700" fill="#1a4fa0">E</text>
  <rect x="18" y="50.5" width="28" height="2" rx="1" fill="url(#gold-line)"/>
</svg>
