<svg xmlns="http://www.w3.org/2000/svg" viewBox="0 0 24 24" fill="none" aria-hidden="true">
  <!-- ï¿½UBï¿½aï¿½ + ï¿½̃¿h:ï¿½*ï¿½UÓ„ï¿½ -->
  <path fill="currentColor" d="M3 4.25A1.25 1.25 0 0 1 4.25 3h5.5A1.25 1.25 0 0 1 11 4.25V6.5H3V4.25zm10.5 0A1.25 1.25 0 0 1 14.75 3h5.5A1.25 1.25 0 0 1 21.5 4.25V6.5H13.5V4.25zM3 10.25A1.25 1.25 0 0 1 4.25 9h4.25A1.25 1.25 0 0 1 9.5 10.25v2.25H3v-2.25zm8.5 0a1.25 1.25 0 0 1 1.25-1.25h4.25A1.25 1.25 0 0 1 17.25 10.25v2.25H11.5v-2.25zM3 16.25A1.25 1.25 0 0 1 4.25 15h5.75A1.25 1.25 0 0 1 11.25 16.25v2.25H3v-2.25zm9.5 0a1.25 1.25 0 0 1 1.25-1.25h5.75A1.25 1.25 0 0 1 19.5 16.25v2.25H12.5v-2.25z"/>
  <path stroke="currentColor" stroke-width="1.75" stroke-linecap="round" d="M7.375 6.5v3.75M7.375 12.5v3.75"/>
</svg>
